<?xml version="1.0" encoding="UTF-8"?>
<svg version="1.1" xmlns="http://www.w3.org/2000/svg" width="606" height="621">
<path d="M0 0 C1.27609323 0.90933009 2.54565553 1.82782853 3.8125 2.75 C4.52019531 3.26046875 5.22789062 3.7709375 5.95703125 4.296875 C8.05020821 6.04185617 9.52623633 7.7126444 11 10 C11 10.66 11 11.32 11 12 C11.556875 12.20625 12.11375 12.4125 12.6875 12.625 C14.94696811 13.96846753 15.9998656 15.05157702 17.625 17.0625 C19.67119397 20.00824713 19.67119397 20.00824713 22 21 C22 24 22 24 20.125 26.1875 C18 28 18 28 16 28 C16 28.66 16 29.32 16 30 C14.38025441 31.71230248 12.7041054 33.37163262 11 35 C9.88625 36.1446875 9.88625 36.1446875 8.75 37.3125 C5.68874733 40.30417875 2.50472684 43.1226329 -0.71875 45.9375 C-3.23447934 48.21199502 -5.61671025 50.58728692 -8 53 C-18 63 -18 63 -20.5859375 65.515625 C-22.82799725 67.82298746 -24.711071 70.16998999 -26.625 72.75 C-30.41760098 77.58610599 -34.69953007 81.19467366 -39.5234375 84.96875 C-41.56830516 86.64592852 -43.18331049 88.18986358 -44.8125 90.25 C-47.31048599 93.39032524 -49.80280637 95.58434259 -53 98 C-53.66 98 -54.32 98 -55 98 C-55.061875 98.556875 -55.12375 99.11375 -55.1875 99.6875 C-56.34176979 102.97272942 -58.49388886 104.607803 -61 107 C-61.804375 108.010625 -62.60875 109.02125 -63.4375 110.0625 C-66 113 -66 113 -68.875 114.875 C-72.30157809 117.2050731 -74.49118933 119.75547032 -77.12890625 122.91015625 C-79.62016742 125.69267133 -82.40221018 128.01318388 -85.30078125 130.359375 C-87.11969882 132.11557127 -87.91980172 133.7396732 -89 136 C-90.33333333 136.66666667 -91.66666667 137.33333333 -93 138 C-93.5775 138.721875 -94.155 139.44375 -94.75 140.1875 C-97.25362131 143.31702664 -100.02510898 145.7003305 -103.09765625 148.25390625 C-105.08282781 149.96204826 -105.08282781 149.96204826 -106.62109375 152.21484375 C-107.07613281 152.80394531 -107.53117187 153.39304687 -108 154 C-108.66 154 -109.32 154 -110 154 C-110.33 154.99 -110.66 155.98 -111 157 C-114.91395589 161.29272582 -119.36102171 165.05404061 -123.6953125 168.9140625 C-125.94557206 170.897039 -125.94557206 170.897039 -127.6796875 172.7734375 C-129 174 -129 174 -131 174 C-131.33 175.32 -131.66 176.64 -132 178 C-132.66 178 -133.32 178 -134 178 C-134 178.66 -134 179.32 -134 180 C-135.32 180.33 -136.64 180.66 -138 181 C-138 182.32 -138 183.64 -138 185 C-136.98774304 184.83721575 -135.97548608 184.67443151 -134.93255466 184.5067144 C-131.2532401 184.03263029 -127.7849001 183.88180042 -124.0791254 183.89256954 C-123.4159595 183.89310407 -122.7527936 183.8936386 -122.06953177 183.89418933 C-119.8557281 183.89720846 -117.64201905 183.90746644 -115.42823792 183.91770935 C-113.82177493 183.92140559 -112.21531086 183.92465424 -110.60884613 183.92749459 C-106.2008297 183.93658093 -101.79285483 183.95200966 -97.38486063 183.96847737 C-92.62898419 183.98513242 -87.87309399 183.99590077 -83.11720276 184.00738525 C-74.87941368 184.02808294 -66.64164242 184.05250759 -58.40387154 184.07946587 C-46.49344703 184.11843758 -34.58301199 184.15178501 -22.67256688 184.18376113 C-3.34851189 184.23579333 15.97552701 184.29237211 35.29956055 184.35180664 C54.07071303 184.40953096 72.84186984 184.46511616 91.61303711 184.51782227 C92.77015233 184.52107198 93.92726755 184.5243217 95.11944687 184.5276699 C100.92437197 184.54395963 106.7292972 184.56020728 112.53422248 184.57643402 C160.68950166 184.71109876 208.84475574 184.85342096 257 185 C257 195.23 257 205.46 257 216 C126.65 216 -3.7 216 -138 216 C-138 217.32 -138 218.64 -138 220 C-137.01 220 -136.02 220 -135 220 C-133.53515625 221.390625 -133.53515625 221.390625 -132.0625 223.25 C-130.31047716 225.41272146 -128.62602407 227.36413446 -126.625 229.3125 C-125 231 -125 231 -125 233 C-124.01 233 -123.02 233 -122 233 C-120.76962305 234.42989753 -119.54677327 235.86795139 -118.38671875 237.35546875 C-116.85586142 239.26804693 -116.85586142 239.26804693 -114 241.5 C-111.73685373 243.38595522 -110.12151322 244.94388901 -108.3125 247.1875 C-106.12328275 250.12754755 -106.12328275 250.12754755 -103 252 C-102.566875 252.78375 -102.13375 253.5675 -101.6875 254.375 C-100.12810721 257.18539092 -100.12810721 257.18539092 -97.1875 258.875 C-93.90754078 261.06163948 -91.96429723 263.25358533 -89.5078125 266.26953125 C-88.06188076 267.92898141 -86.5933253 269.25638412 -84.875 270.625 C-82.11419345 272.90566628 -80.18352619 275.18254686 -78 278 C-73.93708362 282.30191146 -69.47490037 286.13494055 -65.01171875 290.01171875 C-64.34785156 290.66785156 -63.68398437 291.32398438 -63 292 C-63 292.66 -63 293.32 -63 294 C-62.01 294.33 -61.02 294.66 -60 295 C-60 295.66 -60 296.32 -60 297 C-59.0409375 297.37125 -59.0409375 297.37125 -58.0625 297.75 C-55.455699 299.32987939 -55.70804922 300.16780311 -55 303 C-54.41734375 303.27328125 -53.8346875 303.5465625 -53.234375 303.828125 C-50.36306638 305.33405609 -48.83485097 307.27517691 -46.75 309.75 C-43.38279328 313.59192766 -40.05791059 316.70251091 -35.90234375 319.6484375 C-30.55117292 323.45029604 -26.18980469 327.80246543 -21.953125 332.79296875 C-18.91247447 336.22890385 -15.61283829 339.3963292 -12.34765625 342.6171875 C-10.41294821 344.58086788 -8.62436852 346.56156441 -6.875 348.6875 C-3.63206987 352.57538262 0.14549234 355.73582234 4 359 C5.67255438 360.43064527 7.3392627 361.8681539 9 363.3125 C10.1446875 364.29669922 10.1446875 364.29669922 11.3125 365.30078125 C13 367 13 367 13 369 C13.66 369 14.32 369 15 369 C16.7265625 370.64453125 16.7265625 370.64453125 18.625 372.8125 C19.25664062 373.52019531 19.88828125 374.22789062 20.5390625 374.95703125 C22 377 22 377 22 380 C20.34808509 381.35156675 18.67705908 382.679762 17 384 C15.1618645 385.9899458 13.40476873 388.03813904 11.640625 390.09375 C9.84875627 392.17573081 8.05475147 394.17355425 6 396 C5.34 396 4.68 396 4 396 C3.67 396.99 3.34 397.98 3 399 C0.8125 399.8125 0.8125 399.8125 -2 400 C-4.5 397.875 -4.5 397.875 -7 395 C-7.928125 394.113125 -8.85625 393.22625 -9.8125 392.3125 C-12 390 -12 390 -12 388 C-12.5775 387.7525 -13.155 387.505 -13.75 387.25 C-16.32939979 385.81700012 -18.06121592 384.21575324 -20 382 C-20 381.34 -20 380.68 -20 380 C-20.86238281 379.60941406 -20.86238281 379.60941406 -21.7421875 379.2109375 C-24.16814677 377.90981748 -26.05058526 376.43123945 -28.125 374.625 C-28.80820313 374.03976562 -29.49140625 373.45453125 -30.1953125 372.8515625 C-32.01813464 370.98139433 -32.89040656 369.33598619 -34 367 C-35.32392972 365.98758315 -36.65599167 364.98560611 -38 364 C-38 363.34 -38 362.68 -38 362 C-39.175625 361.62875 -39.175625 361.62875 -40.375 361.25 C-43.46493987 359.77860006 -43.53659227 358.92681545 -45 356 C-46.2375 355.5359375 -46.2375 355.5359375 -47.5 355.0625 C-50 354 -50 354 -51.3125 351.375 C-51.539375 350.59125 -51.76625 349.8075 -52 349 C-52.66 349 -53.32 349 -54 349 C-54.061875 348.38125 -54.12375 347.7625 -54.1875 347.125 C-54.828919 344.72238859 -54.828919 344.72238859 -57.5625 343.75 C-58.7690625 343.37875 -58.7690625 343.37875 -60 343 C-60 342.34 -60 341.68 -60 341 C-60.5775 340.773125 -61.155 340.54625 -61.75 340.3125 C-64.59739809 338.65151778 -66.12067193 336.68475439 -68 334 C-68 333.34 -68 332.68 -68 332 C-69.65 331.34 -71.3 330.68 -73 330 C-73 329.01 -73 328.02 -73 327 C-74.32 326.67 -75.64 326.34 -77 326 C-77.33 324.68 -77.66 323.36 -78 322 C-79.32 321.67 -80.64 321.34 -82 321 C-82 320.01 -82 319.02 -82 318 C-82.60199219 317.73703125 -83.20398438 317.4740625 -83.82421875 317.203125 C-86.1189858 315.93420534 -87.21138351 314.79869084 -88.8125 312.75 C-90.86823818 310.24489191 -92.9300568 308.11455554 -95.4375 306.0625 C-98.05106945 303.91216715 -100.20953274 301.66306114 -102.375 299.0625 C-105.5440339 295.3198853 -109.04290503 292.44394578 -112.984375 289.54296875 C-114.83570214 288.12577065 -116.47417916 286.76241964 -118 285 C-118 284.34 -118 283.68 -118 283 C-118.8353125 282.6596875 -118.8353125 282.6596875 -119.6875 282.3125 C-124.46938231 279.59845869 -127.61601375 275.22998281 -131 271 C-131.763125 270.236875 -132.52625 269.47375 -133.3125 268.6875 C-135.5000081 266.4999919 -137.49486448 264.28624876 -139.5 261.9375 C-142.12287557 258.9058646 -144.80596039 256.43755654 -148 254 C-149.68762851 252.3545622 -151.3540349 250.68711423 -153 249 C-154.11375 247.88625 -154.11375 247.88625 -155.25 246.75 C-156.1575 245.8425 -157.065 244.935 -158 244 C-158.76441406 243.25878906 -159.52882812 242.51757812 -160.31640625 241.75390625 C-161.14011719 240.94824219 -161.96382812 240.14257812 -162.8125 239.3125 C-163.60269531 238.54550781 -164.39289063 237.77851563 -165.20703125 236.98828125 C-167 235 -167 235 -167 233 C-167.99 233 -168.98 233 -170 233 C-170.33 232.01 -170.66 231.02 -171 230 C-173.88797217 227.42593785 -176.78124924 225.14583384 -180 223 C-180 222.34 -180 221.68 -180 221 C-180.556875 220.79375 -181.11375 220.5875 -181.6875 220.375 C-183.94696811 219.03153247 -184.9998656 217.94842298 -186.625 215.9375 C-188.67119397 212.99175287 -188.67119397 212.99175287 -191 212 C-191 211.01 -191 210.02 -191 209 C-191.99 208.67 -192.98 208.34 -194 208 C-195.6875 206.5625 -195.6875 206.5625 -197 205 C-197 204.34 -197 203.68 -197 203 C-198.32 202.34 -199.64 201.68 -201 201 C-200.01 199.02 -200.01 199.02 -199 197 C-198.01 197 -197.02 197 -196 197 C-195.67 196.01 -195.34 195.02 -195 194 C-193.328125 192.3515625 -193.328125 192.3515625 -191.25 190.625 C-187.03877469 187.05183913 -183.18845336 183.24504638 -179.375 179.25 C-177 177 -177 177 -174 176 C-173.71125 175.236875 -173.4225 174.47375 -173.125 173.6875 C-171.70907298 170.30500767 -169.86148328 169.27617988 -167 167 C-166.03330145 165.7512336 -165.09810999 164.47773759 -164.1875 163.1875 C-161.53326035 159.51760742 -158.61014815 156.75349089 -155.1484375 153.85546875 C-150.34309023 149.7053961 -145.9923185 145.04340359 -141.5625 140.5 C-138.28437856 137.30183274 -134.84826001 134.29709042 -131.40234375 131.28125 C-129.00506383 129.00480858 -127.04085855 126.59431171 -125 124 C-123.34997172 122.64613064 -121.6825613 121.31321858 -120 120 C-117.54475594 117.66167232 -115.31161157 115.42702327 -113.3125 112.6875 C-112.6628125 111.8521875 -112.6628125 111.8521875 -112 111 C-111.34 111 -110.68 111 -110 111 C-109.74259033 110.41138184 -109.48518066 109.82276367 -109.2199707 109.21630859 C-107.89520294 106.80961622 -106.51047521 105.37921974 -104.48046875 103.5390625 C-103.78759766 102.90226562 -103.09472656 102.26546875 -102.38085938 101.609375 C-101.65705078 100.95453125 -100.93324219 100.2996875 -100.1875 99.625 C-94.36068265 94.38075766 -94.36068265 94.38075766 -89.17578125 88.5234375 C-88.45777344 87.69070312 -87.73976563 86.85796875 -87 86 C-86.01 86 -85.02 86 -84 86 C-83.814375 85.319375 -83.62875 84.63875 -83.4375 83.9375 C-80.48424332 77.90258418 -76.12165101 74.4486604 -70 72 C-69.76023438 71.27296875 -69.52046875 70.5459375 -69.2734375 69.796875 C-67.50145922 65.90504541 -64.75391274 63.97386811 -61.4375 61.375 C-56.77162091 57.93410732 -56.77162091 57.93410732 -54 53 C-51.22970799 49.97786326 -48.2426763 47.34509203 -45.125 44.6875 C-42.23063835 42.20194649 -39.75102297 39.62010279 -37.3125 36.6875 C-34.72783372 33.61304536 -32.83550787 32.31503127 -29 31 C-28.70738281 30.41089844 -28.41476563 29.82179687 -28.11328125 29.21484375 C-26.77883074 26.55998959 -25.11840465 24.88806926 -23 22.8125 C-22.29875 22.11769531 -21.5975 21.42289063 -20.875 20.70703125 C-19 19 -19 19 -17 18 C-16.731875 17.401875 -16.46375 16.80375 -16.1875 16.1875 C-14.63144814 13.32108868 -12.57937827 11.97952286 -10 10 C-8.31237149 8.3545622 -6.6459651 6.68711423 -5 5 C-3.33333333 3.33333333 -1.66666667 1.66666667 0 0 Z " fill="#27272A" transform="translate(279,107)"/>
<path d="M0 0 C0.66 0.33 1.32 0.66 2 1 C-2.62 5.62 -7.24 10.24 -12 15 C-12.33 14.01 -12.66 13.02 -13 12 C-12.113125 11.278125 -11.22625 10.55625 -10.3125 9.8125 C-7.37086341 7.36461329 -4.66986956 4.74403261 -2 2 C-1.34 1.34 -0.68 0.68 0 0 Z M-16 16 C-15.34 16.33 -14.68 16.66 -14 17 C-17.63 20.63 -21.26 24.26 -25 28 C-25 25 -25 25 -23.03125 22.73828125 C-21.77828125 21.53751953 -21.77828125 21.53751953 -20.5 20.3125 C-19.6646875 19.50425781 -18.829375 18.69601563 -17.96875 17.86328125 C-17.3190625 17.24839844 -16.669375 16.63351563 -16 16 Z M-28 28 C-27.34 28.33 -26.68 28.66 -26 29 C-33.92 36.92 -41.84 44.84 -50 53 C-50.33 52.01 -50.66 51.02 -51 50 C-48.15421516 47.06528438 -45.24308235 44.33241032 -42.125 41.6875 C-38.56905508 38.62226203 -35.53231642 35.31341819 -32.54296875 31.69921875 C-31 30 -31 30 -28 28 Z M-57 57 C-56.34 57.33 -55.68 57.66 -55 58 C-58.63 61.63 -62.26 65.26 -66 69 C-66 66 -66 66 -63.75 63.5625 C-62.8425 62.716875 -61.935 61.87125 -61 61 C-60.236875 60.236875 -59.47375 59.47375 -58.6875 58.6875 C-58.130625 58.130625 -57.57375 57.57375 -57 57 Z M-69 69 C-68.34 69.33 -67.68 69.66 -67 70 C-71.29 74.29 -75.58 78.58 -80 83 C-80 79.30159372 -79.17133056 78.68584567 -76.75 76 C-76.14671875 75.319375 -75.5434375 74.63875 -74.921875 73.9375 C-73.06233388 72.06284066 -71.15205789 70.52358081 -69 69 Z M-84 83 C-83.01 83.33 -82.02 83.66 -81 84 C-110.37 113.37 -139.74 142.74 -170 173 C-170 170 -170 170 -167.9375 167.875 C-167.47859375 167.44703125 -167.0196875 167.0190625 -166.546875 166.578125 C-164.72464512 164.71908239 -163.237768 162.7157284 -161.6875 160.625 C-158.80689813 156.854709 -155.74575101 153.85324842 -152.11328125 150.8203125 C-147.31573708 146.68786226 -142.9800929 142.03086451 -138.5625 137.5 C-135.28437856 134.30183274 -131.84826001 131.29709042 -128.40234375 128.28125 C-126.00506383 126.00480858 -124.04085855 123.59431171 -122 121 C-120.34997172 119.64613064 -118.6825613 118.31321858 -117 117 C-114.54475594 114.66167232 -112.31161157 112.42702327 -110.3125 109.6875 C-109.879375 109.130625 -109.44625 108.57375 -109 108 C-108.34 108 -107.68 108 -107 108 C-106.74259033 107.41138184 -106.48518066 106.82276367 -106.2199707 106.21630859 C-104.89520294 103.80961622 -103.51047521 102.37921974 -101.48046875 100.5390625 C-100.78759766 99.90226562 -100.09472656 99.26546875 -99.38085938 98.609375 C-98.65705078 97.95453125 -97.93324219 97.2996875 -97.1875 96.625 C-92.43351238 92.30553976 -87.9802894 88.05160502 -84 83 Z M-173 173 C-172.34 173.33 -171.68 173.66 -171 174 C-171.69673828 174.68102783 -172.39347656 175.36205566 -173.11132812 176.0637207 C-175.69066415 178.58881756 -178.26010866 181.12378037 -180.82666016 183.66186523 C-181.93953809 184.75964284 -183.05509176 185.85471467 -184.17333984 186.94702148 C-185.77890324 188.51625669 -187.3746384 190.09492457 -188.96875 191.67578125 C-189.47184692 192.16339432 -189.97494385 192.65100739 -190.49328613 193.15339661 C-191.72044942 194.37995603 -192.86785408 195.68522878 -194 197 C-194 197.99 -194 198.98 -194 200 C-195.32 199.34 -196.64 198.68 -198 198 C-197.34 196.68 -196.68 195.36 -196 194 C-195.01 194 -194.02 194 -193 194 C-192.67 193.01 -192.34 192.02 -192 191 C-190.328125 189.3515625 -190.328125 189.3515625 -188.25 187.625 C-185.01115563 184.87688963 -181.96564503 182.0457976 -179 179 C-177 177 -175 175 -173 173 Z " fill="#78787A" transform="translate(276,110)"/>
<path d="M0 0 C1.27609323 0.90933009 2.54565553 1.82782853 3.8125 2.75 C4.87404297 3.51570313 4.87404297 3.51570313 5.95703125 4.296875 C8.02977691 6.02482358 9.47375854 7.78526476 11 10 C10.67 10.66 10.34 11.32 10 12 C8.32737283 10.38113585 6.66204463 8.7547271 5 7.125 C4.071875 6.22007813 3.14375 5.31515625 2.1875 4.3828125 C0 2 0 2 0 0 Z " fill="#CECECF" transform="translate(279,107)"/>
<path d="M0 0 C3.63 0 7.26 0 11 0 C11 0.33 11 0.66 11 1 C7.37 1 3.74 1 0 1 C0 0.67 0 0.34 0 0 Z " fill="#FFFFFF" transform="translate(237,0)"/>
<path d="M0 0 C1.65 0 3.3 0 5 0 C5 0.66 5 1.32 5 2 C3.35 2 1.7 2 0 2 C0 1.34 0 0.68 0 0 Z " fill="#FFFFFF" transform="translate(435,22)"/>
<path d="M0 0 C0.66 0.33 1.32 0.66 2 1 C1.01 1 0.02 1 -1 1 C-0.67 0.67 -0.34 0.34 0 0 Z " fill="#FFFFFF" transform="translate(73,101)"/>
<path d="M0 0 C0.66 0 1.32 0 2 0 C2 0.66 2 1.32 2 2 C1.34 2 0.68 2 0 2 C0 1.34 0 0.68 0 0 Z " fill="#FFFFFF" transform="translate(29,89)"/>
<path d="M0 0 C1 4 1 4 1 4 Z " fill="#FFFFFF" transform="translate(519,51)"/>
<path d="M0 0 C0 3 0 3 0 3 Z " fill="#FFFFFF" transform="translate(525,29)"/>
<path d="M0 0 C3 1 3 1 3 1 Z " fill="#FFFFFF" transform="translate(358,606)"/>
<path d="" fill="#FFFFFF" transform="translate(0,0)"/>
<path d="M0 0 C2 1 2 1 2 1 Z " fill="#FFFFFF" transform="translate(221,574)"/>
<path d="M0 0 C2 1 2 1 2 1 Z " fill="#FFFFFF" transform="translate(369,571)"/>
<path d="" fill="#FFFFFF" transform="translate(0,0)"/>
<path d="M0 0 C2 1 2 1 2 1 Z " fill="#FFFFFF" transform="translate(22,13)"/>
<path d="" fill="#FFFFFF" transform="translate(0,0)"/>
<path d="" fill="#FFFFFF" transform="translate(0,0)"/>
<path d="" fill="#FFFFFF" transform="translate(0,0)"/>
<path d="" fill="#FFFFFF" transform="translate(0,0)"/>
<path d="" fill="#FFFFFF" transform="translate(0,0)"/>
<path d="" fill="#FFFFFF" transform="translate(0,0)"/>
<path d="" fill="#FFFFFF" transform="translate(0,0)"/>
<path d="" fill="#FFFFFF" transform="translate(0,0)"/>
<path d="" fill="#FFFFFF" transform="translate(0,0)"/>
<path d="" fill="#FFFFFF" transform="translate(0,0)"/>
<path d="" fill="#FFFFFF" transform="translate(0,0)"/>
<path d="" fill="#FFFFFF" transform="translate(0,0)"/>
</svg>
